<mxfile host="Electron" modified="2023-12-26T01:30:11.233Z" agent="Mozilla/5.0 (Windows NT 10.0; Win64; x64) AppleWebKit/537.36 (KHTML, like Gecko) draw.io/22.1.11 Chrome/114.0.5735.289 Electron/25.9.8 Safari/537.36" etag="8u3IMFNHFFOVJDv03RNE" version="22.1.11" type="device">
  <diagram id="C5RBs43oDa-KdzZeNtuy" name="Page-1">
    <mxGraphModel dx="794" dy="519" grid="1" gridSize="10" guides="1" tooltips="1" connect="1" arrows="1" fold="1" page="1" pageScale="1" pageWidth="827" pageHeight="1169" math="0" shadow="0">
      <root>
        <mxCell id="WIyWlLk6GJQsqaUBKTNV-0" />
        <mxCell id="WIyWlLk6GJQsqaUBKTNV-1" parent="WIyWlLk6GJQsqaUBKTNV-0" />
        <mxCell id="bg5DDBHju25KWHDZTNtc-0" style="edgeStyle=orthogonalEdgeStyle;rounded=0;orthogonalLoop=1;jettySize=auto;html=1;exitX=1;exitY=0.5;exitDx=0;exitDy=0;entryX=0;entryY=0.5;entryDx=0;entryDy=0;" edge="1" parent="WIyWlLk6GJQsqaUBKTNV-1" source="bg5DDBHju25KWHDZTNtc-1" target="bg5DDBHju25KWHDZTNtc-2">
          <mxGeometry relative="1" as="geometry" />
        </mxCell>
        <mxCell id="bg5DDBHju25KWHDZTNtc-1" value=".c文件" style="rounded=0;whiteSpace=wrap;html=1;" vertex="1" parent="WIyWlLk6GJQsqaUBKTNV-1">
          <mxGeometry x="180" y="250" width="70" height="40" as="geometry" />
        </mxCell>
        <mxCell id="bg5DDBHju25KWHDZTNtc-2" value="Win可执行.exe文件" style="rounded=0;whiteSpace=wrap;html=1;" vertex="1" parent="WIyWlLk6GJQsqaUBKTNV-1">
          <mxGeometry x="380" y="250" width="120" height="40" as="geometry" />
        </mxCell>
        <mxCell id="bg5DDBHju25KWHDZTNtc-3" value="Win下的gcc" style="text;html=1;strokeColor=none;fillColor=none;align=center;verticalAlign=middle;whiteSpace=wrap;rounded=0;" vertex="1" parent="WIyWlLk6GJQsqaUBKTNV-1">
          <mxGeometry x="255" y="240" width="90" height="30" as="geometry" />
        </mxCell>
        <mxCell id="bg5DDBHju25KWHDZTNtc-4" style="edgeStyle=orthogonalEdgeStyle;rounded=0;orthogonalLoop=1;jettySize=auto;html=1;exitX=1;exitY=0.5;exitDx=0;exitDy=0;" edge="1" parent="WIyWlLk6GJQsqaUBKTNV-1">
          <mxGeometry relative="1" as="geometry">
            <mxPoint x="330" y="345" as="sourcePoint" />
            <mxPoint x="355" y="270" as="targetPoint" />
            <Array as="points">
              <mxPoint x="356" y="345" />
            </Array>
          </mxGeometry>
        </mxCell>
        <mxCell id="bg5DDBHju25KWHDZTNtc-5" value="Win library" style="rounded=0;whiteSpace=wrap;html=1;" vertex="1" parent="WIyWlLk6GJQsqaUBKTNV-1">
          <mxGeometry x="255" y="330" width="90" height="30" as="geometry" />
        </mxCell>
      </root>
    </mxGraphModel>
  </diagram>
</mxfile>
